<svg width="1040" height="351" viewBox="0 0 1040 351" fill="none" xmlns="http://www.w3.org/2000/svg">
<rect width="1040" height="351" rx="20" fill="url(#paint0_linear_192_130)"/>
<path d="M536.95 128H541.09V149H536.95V128ZM553.134 133.58C554.774 133.58 556.124 134.13 557.184 135.23C558.264 136.33 558.804 137.85 558.804 139.79V149H554.934V140.27C554.934 139.27 554.664 138.51 554.124 137.99C553.584 137.45 552.864 137.18 551.964 137.18C550.964 137.18 550.164 137.49 549.564 138.11C548.964 138.73 548.664 139.66 548.664 140.9V149H544.794V134H548.664V135.68C549.604 134.28 551.094 133.58 553.134 133.58ZM570.686 137.72H567.296V143.96C567.296 144.48 567.426 144.86 567.686 145.1C567.946 145.34 568.326 145.48 568.826 145.52C569.326 145.54 569.946 145.53 570.686 145.49V149C568.026 149.3 566.146 149.05 565.046 148.25C563.966 147.45 563.426 146.02 563.426 143.96V137.72H560.816V134H563.426V130.97L567.296 129.8V134H570.686V137.72ZM576.213 143.09C576.733 144.97 578.143 145.91 580.443 145.91C581.923 145.91 583.043 145.41 583.803 144.41L586.923 146.21C585.443 148.35 583.263 149.42 580.383 149.42C577.903 149.42 575.913 148.67 574.413 147.17C572.913 145.67 572.163 143.78 572.163 141.5C572.163 139.24 572.903 137.36 574.383 135.86C575.863 134.34 577.763 133.58 580.083 133.58C582.283 133.58 584.093 134.34 585.513 135.86C586.953 137.38 587.673 139.26 587.673 141.5C587.673 142 587.623 142.53 587.523 143.09H576.213ZM576.153 140.09H583.803C583.583 139.07 583.123 138.31 582.423 137.81C581.743 137.31 580.963 137.06 580.083 137.06C579.043 137.06 578.183 137.33 577.503 137.87C576.823 138.39 576.373 139.13 576.153 140.09ZM590.371 149V127.1H594.241V149H590.371ZM597.78 149V127.1H601.65V149H597.78ZM608.46 143.09C608.98 144.97 610.39 145.91 612.69 145.91C614.17 145.91 615.29 145.41 616.05 144.41L619.17 146.21C617.69 148.35 615.51 149.42 612.63 149.42C610.15 149.42 608.16 148.67 606.66 147.17C605.16 145.67 604.41 143.78 604.41 141.5C604.41 139.24 605.15 137.36 606.63 135.86C608.11 134.34 610.01 133.58 612.33 133.58C614.53 133.58 616.34 134.34 617.76 135.86C619.2 137.38 619.92 139.26 619.92 141.5C619.92 142 619.87 142.53 619.77 143.09H608.46ZM608.4 140.09H616.05C615.83 139.07 615.37 138.31 614.67 137.81C613.99 137.31 613.21 137.06 612.33 137.06C611.29 137.06 610.43 137.33 609.75 137.87C609.07 138.39 608.62 139.13 608.4 140.09ZM629.641 149.42C627.381 149.42 625.491 148.66 623.971 147.14C622.471 145.62 621.721 143.74 621.721 141.5C621.721 139.26 622.471 137.38 623.971 135.86C625.491 134.34 627.381 133.58 629.641 133.58C631.101 133.58 632.431 133.93 633.631 134.63C634.831 135.33 635.741 136.27 636.361 137.45L633.031 139.4C632.731 138.78 632.271 138.29 631.651 137.93C631.051 137.57 630.371 137.39 629.611 137.39C628.451 137.39 627.491 137.78 626.731 138.56C625.971 139.32 625.591 140.3 625.591 141.5C625.591 142.68 625.971 143.66 626.731 144.44C627.491 145.2 628.451 145.58 629.611 145.58C630.391 145.58 631.081 145.41 631.681 145.07C632.301 144.71 632.761 144.22 633.061 143.6L636.421 145.52C635.761 146.7 634.831 147.65 633.631 148.37C632.431 149.07 631.101 149.42 629.641 149.42ZM647.045 137.72H643.655V143.96C643.655 144.48 643.785 144.86 644.045 145.1C644.305 145.34 644.685 145.48 645.185 145.52C645.685 145.54 646.305 145.53 647.045 145.49V149C644.385 149.3 642.505 149.05 641.405 148.25C640.325 147.45 639.785 146.02 639.785 143.96V137.72H637.175V134H639.785V130.97L643.655 129.8V134H647.045V137.72ZM659.905 134H663.775V149H659.905V147.32C658.965 148.72 657.475 149.42 655.435 149.42C653.795 149.42 652.435 148.87 651.355 147.77C650.295 146.67 649.765 145.15 649.765 143.21V134H653.635V142.73C653.635 143.73 653.905 144.5 654.445 145.04C654.985 145.56 655.705 145.82 656.605 145.82C657.605 145.82 658.405 145.51 659.005 144.89C659.605 144.27 659.905 143.34 659.905 142.1V134ZM678.716 134H682.586V149H678.716V147.23C677.556 148.69 675.926 149.42 673.826 149.42C671.826 149.42 670.106 148.66 668.666 147.14C667.246 145.6 666.536 143.72 666.536 141.5C666.536 139.28 667.246 137.41 668.666 135.89C670.106 134.35 671.826 133.58 673.826 133.58C675.926 133.58 677.556 134.31 678.716 135.77V134ZM671.576 144.56C672.356 145.34 673.346 145.73 674.546 145.73C675.746 145.73 676.736 145.34 677.516 144.56C678.316 143.76 678.716 142.74 678.716 141.5C678.716 140.26 678.316 139.25 677.516 138.47C676.736 137.67 675.746 137.27 674.546 137.27C673.346 137.27 672.356 137.67 671.576 138.47C670.796 139.25 670.406 140.26 670.406 141.5C670.406 142.74 670.796 143.76 671.576 144.56ZM686.092 149V127.1H689.962V149H686.092ZM709.009 128C711.029 128 712.729 128.68 714.109 130.04C715.489 131.4 716.179 133.07 716.179 135.05C716.179 137.03 715.489 138.7 714.109 140.06C712.729 141.42 711.029 142.1 709.009 142.1H705.319V149H701.179V128H709.009ZM709.009 138.23C709.889 138.23 710.619 137.93 711.199 137.33C711.779 136.71 712.069 135.95 712.069 135.05C712.069 134.13 711.779 133.37 711.199 132.77C710.619 132.17 709.889 131.87 709.009 131.87H705.319V138.23H709.009ZM722.239 136.58C722.599 135.62 723.189 134.9 724.009 134.42C724.849 133.94 725.779 133.7 726.799 133.7V138.02C725.619 137.88 724.559 138.12 723.619 138.74C722.699 139.36 722.239 140.39 722.239 141.83V149H718.369V134H722.239V136.58ZM741.282 147.14C739.742 148.66 737.862 149.42 735.642 149.42C733.422 149.42 731.542 148.66 730.002 147.14C728.482 145.6 727.722 143.72 727.722 141.5C727.722 139.28 728.482 137.41 730.002 135.89C731.542 134.35 733.422 133.58 735.642 133.58C737.862 133.58 739.742 134.35 741.282 135.89C742.822 137.41 743.592 139.28 743.592 141.5C743.592 143.72 742.822 145.6 741.282 147.14ZM732.732 144.47C733.512 145.25 734.482 145.64 735.642 145.64C736.802 145.64 737.772 145.25 738.552 144.47C739.332 143.69 739.722 142.7 739.722 141.5C739.722 140.3 739.332 139.31 738.552 138.53C737.772 137.75 736.802 137.36 735.642 137.36C734.482 137.36 733.512 137.75 732.732 138.53C731.972 139.31 731.592 140.3 731.592 141.5C731.592 142.7 731.972 143.69 732.732 144.47ZM755.042 133.58C757.062 133.58 758.782 134.35 760.202 135.89C761.642 137.41 762.362 139.28 762.362 141.5C762.362 143.72 761.642 145.6 760.202 147.14C758.782 148.66 757.062 149.42 755.042 149.42C752.942 149.42 751.322 148.69 750.182 147.23V155H746.312V134H750.182V135.77C751.322 134.31 752.942 133.58 755.042 133.58ZM751.352 144.56C752.132 145.34 753.122 145.73 754.322 145.73C755.522 145.73 756.512 145.34 757.292 144.56C758.092 143.76 758.492 142.74 758.492 141.5C758.492 140.26 758.092 139.25 757.292 138.47C756.512 137.67 755.522 137.27 754.322 137.27C753.122 137.27 752.132 137.67 751.352 138.47C750.572 139.25 750.182 140.26 750.182 141.5C750.182 142.74 750.572 143.76 751.352 144.56ZM768.358 143.09C768.878 144.97 770.288 145.91 772.588 145.91C774.068 145.91 775.188 145.41 775.948 144.41L779.068 146.21C777.588 148.35 775.408 149.42 772.528 149.42C770.048 149.42 768.058 148.67 766.558 147.17C765.058 145.67 764.308 143.78 764.308 141.5C764.308 139.24 765.048 137.36 766.528 135.86C768.008 134.34 769.908 133.58 772.228 133.58C774.428 133.58 776.238 134.34 777.658 135.86C779.098 137.38 779.818 139.26 779.818 141.5C779.818 142 779.768 142.53 779.668 143.09H768.358ZM768.298 140.09H775.948C775.728 139.07 775.268 138.31 774.568 137.81C773.888 137.31 773.108 137.06 772.228 137.06C771.188 137.06 770.328 137.33 769.648 137.87C768.968 138.39 768.518 139.13 768.298 140.09ZM786.387 136.58C786.747 135.62 787.337 134.9 788.157 134.42C788.997 133.94 789.927 133.7 790.947 133.7V138.02C789.767 137.88 788.707 138.12 787.767 138.74C786.847 139.36 786.387 140.39 786.387 141.83V149H782.517V134H786.387V136.58ZM802.197 137.72H798.807V143.96C798.807 144.48 798.937 144.86 799.197 145.1C799.457 145.34 799.837 145.48 800.337 145.52C800.837 145.54 801.457 145.53 802.197 145.49V149C799.537 149.3 797.657 149.05 796.557 148.25C795.477 147.45 794.937 146.02 794.937 143.96V137.72H792.327V134H794.937V130.97L798.807 129.8V134H802.197V137.72ZM815.025 134H819.165L813.705 149C812.925 151.16 811.885 152.72 810.585 153.68C809.305 154.66 807.705 155.1 805.785 155V151.4C806.825 151.42 807.645 151.2 808.245 150.74C808.865 150.28 809.355 149.54 809.715 148.52L803.565 134H807.795L811.695 144.08L815.025 134ZM840.201 149L835.971 141.71H832.821V149H828.681V128H837.081C839.021 128 840.671 128.68 842.031 130.04C843.391 131.4 844.071 133.04 844.071 134.96C844.071 136.26 843.701 137.47 842.961 138.59C842.221 139.69 841.241 140.52 840.021 141.08L844.671 149H840.201ZM832.821 131.87V138.08H837.081C837.861 138.08 838.531 137.78 839.091 137.18C839.651 136.56 839.931 135.82 839.931 134.96C839.931 134.1 839.651 133.37 839.091 132.77C838.531 132.17 837.861 131.87 837.081 131.87H832.821ZM848.846 132.2C848.206 132.2 847.646 131.97 847.166 131.51C846.706 131.03 846.476 130.47 846.476 129.83C846.476 129.19 846.706 128.63 847.166 128.15C847.646 127.67 848.206 127.43 848.846 127.43C849.506 127.43 850.066 127.67 850.526 128.15C851.006 128.63 851.246 129.19 851.246 129.83C851.246 130.47 851.006 131.03 850.526 131.51C850.066 131.97 849.506 132.2 848.846 132.2ZM846.926 149V134H850.796V149H846.926ZM865.825 134H869.605V148.28C869.605 150.6 868.835 152.37 867.295 153.59C865.775 154.81 863.935 155.42 861.775 155.42C860.155 155.42 858.725 155.11 857.485 154.49C856.265 153.87 855.325 152.96 854.665 151.76L857.965 149.87C858.725 151.27 860.035 151.97 861.895 151.97C863.115 151.97 864.075 151.65 864.775 151.01C865.475 150.37 865.825 149.46 865.825 148.28V146.66C864.685 148.18 863.085 148.94 861.025 148.94C858.905 148.94 857.125 148.2 855.685 146.72C854.265 145.22 853.555 143.4 853.555 141.26C853.555 139.14 854.275 137.33 855.715 135.83C857.155 134.33 858.925 133.58 861.025 133.58C863.085 133.58 864.685 134.34 865.825 135.86V134ZM858.595 144.23C859.395 144.99 860.405 145.37 861.625 145.37C862.845 145.37 863.845 144.99 864.625 144.23C865.425 143.45 865.825 142.46 865.825 141.26C865.825 140.08 865.425 139.11 864.625 138.35C863.845 137.57 862.845 137.18 861.625 137.18C860.405 137.18 859.395 137.57 858.595 138.35C857.815 139.11 857.425 140.08 857.425 141.26C857.425 142.46 857.815 143.45 858.595 144.23ZM881.451 133.58C883.091 133.58 884.441 134.13 885.501 135.23C886.581 136.33 887.121 137.85 887.121 139.79V149H883.251V140.27C883.251 139.27 882.981 138.51 882.441 137.99C881.901 137.45 881.181 137.18 880.281 137.18C879.281 137.18 878.481 137.49 877.881 138.11C877.281 138.73 876.981 139.66 876.981 140.9V149H873.111V128H876.981V135.68C877.921 134.28 879.411 133.58 881.451 133.58ZM899.002 137.72H895.612V143.96C895.612 144.48 895.742 144.86 896.002 145.1C896.262 145.34 896.642 145.48 897.142 145.52C897.642 145.54 898.262 145.53 899.002 145.49V149C896.342 149.3 894.462 149.05 893.362 148.25C892.282 147.45 891.742 146.02 891.742 143.96V137.72H889.132V134H891.742V130.97L895.612 129.8V134H899.002V137.72ZM904.976 138.26C904.976 138.66 905.236 138.99 905.756 139.25C906.296 139.49 906.946 139.71 907.706 139.91C908.466 140.09 909.226 140.33 909.986 140.63C910.746 140.91 911.386 141.39 911.906 142.07C912.446 142.75 912.716 143.6 912.716 144.62C912.716 146.16 912.136 147.35 910.976 148.19C909.836 149.01 908.406 149.42 906.686 149.42C903.606 149.42 901.506 148.23 900.386 145.85L903.746 143.96C904.186 145.26 905.166 145.91 906.686 145.91C908.066 145.91 908.756 145.48 908.756 144.62C908.756 144.22 908.486 143.9 907.946 143.66C907.426 143.4 906.786 143.17 906.026 142.97C905.266 142.77 904.506 142.52 903.746 142.22C902.986 141.92 902.336 141.45 901.796 140.81C901.276 140.15 901.016 139.33 901.016 138.35C901.016 136.87 901.556 135.71 902.636 134.87C903.736 134.01 905.096 133.58 906.716 133.58C907.936 133.58 909.046 133.86 910.046 134.42C911.046 134.96 911.836 135.74 912.416 136.76L909.116 138.56C908.636 137.54 907.836 137.03 906.716 137.03C906.216 137.03 905.796 137.14 905.456 137.36C905.136 137.58 904.976 137.88 904.976 138.26Z" fill="black"/>
<path d="M542.6 174.192C543.112 174.437 543.517 174.789 543.816 175.248C544.125 175.707 544.28 176.235 544.28 176.832C544.28 177.728 543.965 178.48 543.336 179.088C542.707 179.696 541.939 180 541.032 180H536.2V168.8H540.68C541.555 168.8 542.296 169.093 542.904 169.68C543.512 170.267 543.816 170.992 543.816 171.856C543.816 172.848 543.411 173.627 542.6 174.192ZM540.68 170.192H537.688V173.616H540.68C541.149 173.616 541.544 173.451 541.864 173.12C542.184 172.789 542.344 172.384 542.344 171.904C542.344 171.435 542.179 171.035 541.848 170.704C541.528 170.363 541.139 170.192 540.68 170.192ZM541.032 178.608C541.533 178.608 541.955 178.432 542.296 178.08C542.637 177.728 542.808 177.296 542.808 176.784C542.808 176.283 542.632 175.856 542.28 175.504C541.939 175.152 541.523 174.976 541.032 174.976H537.688V178.608H541.032ZM545.898 180V168.32H547.29V180H545.898ZM556.164 178.992C555.343 179.803 554.346 180.208 553.172 180.208C551.999 180.208 551.002 179.803 550.18 178.992C549.37 178.181 548.964 177.184 548.964 176C548.964 174.816 549.37 173.819 550.18 173.008C551.002 172.197 551.999 171.792 553.172 171.792C554.346 171.792 555.343 172.197 556.164 173.008C556.986 173.819 557.396 174.816 557.396 176C557.396 177.184 556.986 178.181 556.164 178.992ZM553.172 178.848C553.972 178.848 554.644 178.576 555.188 178.032C555.732 177.488 556.004 176.811 556.004 176C556.004 175.189 555.732 174.512 555.188 173.968C554.644 173.424 553.972 173.152 553.172 173.152C552.383 173.152 551.716 173.424 551.172 173.968C550.628 174.512 550.356 175.189 550.356 176C550.356 176.811 550.628 177.488 551.172 178.032C551.716 178.576 552.383 178.848 553.172 178.848ZM562.796 180.208C561.59 180.208 560.588 179.808 559.788 179.008C558.988 178.197 558.588 177.195 558.588 176C558.588 174.805 558.988 173.808 559.788 173.008C560.588 172.197 561.59 171.792 562.796 171.792C563.585 171.792 564.294 171.984 564.924 172.368C565.553 172.741 566.022 173.248 566.332 173.888L565.164 174.56C564.961 174.133 564.646 173.792 564.22 173.536C563.804 173.28 563.329 173.152 562.796 173.152C561.996 173.152 561.324 173.424 560.78 173.968C560.246 174.512 559.98 175.189 559.98 176C559.98 176.8 560.246 177.472 560.78 178.016C561.324 178.56 561.996 178.832 562.796 178.832C563.329 178.832 563.809 178.709 564.236 178.464C564.662 178.208 564.988 177.867 565.212 177.44L566.396 178.128C566.054 178.757 565.564 179.264 564.924 179.648C564.284 180.021 563.574 180.208 562.796 180.208ZM574.536 180H572.808L569.16 176.208V180H567.768V168.8H569.16V175.536L572.616 172H574.408L570.584 175.872L574.536 180ZM578.855 180.208C577.65 180.208 576.647 179.808 575.847 179.008C575.047 178.197 574.647 177.195 574.647 176C574.647 174.805 575.047 173.808 575.847 173.008C576.647 172.197 577.65 171.792 578.855 171.792C579.644 171.792 580.354 171.984 580.983 172.368C581.612 172.741 582.082 173.248 582.391 173.888L581.223 174.56C581.02 174.133 580.706 173.792 580.279 173.536C579.863 173.28 579.388 173.152 578.855 173.152C578.055 173.152 577.383 173.424 576.839 173.968C576.306 174.512 576.039 175.189 576.039 176C576.039 176.8 576.306 177.472 576.839 178.016C577.383 178.56 578.055 178.832 578.855 178.832C579.388 178.832 579.868 178.709 580.295 178.464C580.722 178.208 581.047 177.867 581.271 177.44L582.455 178.128C582.114 178.757 581.623 179.264 580.983 179.648C580.343 180.021 579.634 180.208 578.855 180.208ZM587.812 171.792C588.75 171.792 589.502 172.091 590.068 172.688C590.633 173.275 590.916 174.075 590.916 175.088V180H589.524V175.168C589.524 174.517 589.348 174.016 588.996 173.664C588.644 173.301 588.158 173.12 587.54 173.12C586.846 173.12 586.286 173.339 585.86 173.776C585.433 174.203 585.22 174.864 585.22 175.76V180H583.828V168.8H585.22V173.152C585.785 172.245 586.649 171.792 587.812 171.792ZM599.481 172H600.873V180H599.481V178.624C598.788 179.68 597.78 180.208 596.457 180.208C595.337 180.208 594.383 179.803 593.593 178.992C592.804 178.171 592.409 177.173 592.409 176C592.409 174.827 592.804 173.835 593.593 173.024C594.383 172.203 595.337 171.792 596.457 171.792C597.78 171.792 598.788 172.32 599.481 173.376V172ZM596.633 178.864C597.444 178.864 598.121 178.592 598.665 178.048C599.209 177.493 599.481 176.811 599.481 176C599.481 175.189 599.209 174.512 598.665 173.968C598.121 173.413 597.444 173.136 596.633 173.136C595.833 173.136 595.161 173.413 594.617 173.968C594.073 174.512 593.801 175.189 593.801 176C593.801 176.811 594.073 177.493 594.617 178.048C595.161 178.592 595.833 178.864 596.633 178.864ZM603.685 170.544C603.418 170.544 603.194 170.453 603.013 170.272C602.831 170.091 602.741 169.872 602.741 169.616C602.741 169.36 602.831 169.141 603.013 168.96C603.194 168.768 603.418 168.672 603.685 168.672C603.941 168.672 604.159 168.768 604.341 168.96C604.522 169.141 604.613 169.36 604.613 169.616C604.613 169.872 604.522 170.091 604.341 170.272C604.159 170.453 603.941 170.544 603.685 170.544ZM602.981 180V172H604.373V180H602.981ZM610.479 171.792C611.417 171.792 612.169 172.091 612.735 172.688C613.3 173.275 613.583 174.075 613.583 175.088V180H612.191V175.168C612.191 174.517 612.015 174.016 611.663 173.664C611.311 173.301 610.825 173.12 610.207 173.12C609.513 173.12 608.953 173.339 608.527 173.776C608.1 174.203 607.887 174.864 607.887 175.76V180H606.495V172H607.887V173.152C608.452 172.245 609.316 171.792 610.479 171.792ZM615.668 175.76V174.416H621.508V175.76H615.668ZM628.173 171.792C629.293 171.792 630.248 172.203 631.037 173.024C631.826 173.835 632.221 174.827 632.221 176C632.221 177.173 631.826 178.171 631.037 178.992C630.248 179.803 629.293 180.208 628.173 180.208C626.85 180.208 625.842 179.68 625.149 178.624V180H623.757V168.8H625.149V173.376C625.842 172.32 626.85 171.792 628.173 171.792ZM627.997 178.864C628.797 178.864 629.469 178.592 630.013 178.048C630.557 177.493 630.829 176.811 630.829 176C630.829 175.189 630.557 174.512 630.013 173.968C629.469 173.413 628.797 173.136 627.997 173.136C627.186 173.136 626.509 173.413 625.965 173.968C625.421 174.512 625.149 175.189 625.149 176C625.149 176.811 625.421 177.493 625.965 178.048C626.509 178.592 627.186 178.864 627.997 178.864ZM640.505 172H641.897V180H640.505V178.624C639.811 179.68 638.803 180.208 637.481 180.208C636.361 180.208 635.406 179.803 634.617 178.992C633.827 178.171 633.433 177.173 633.433 176C633.433 174.827 633.827 173.835 634.617 173.024C635.406 172.203 636.361 171.792 637.481 171.792C638.803 171.792 639.811 172.32 640.505 173.376V172ZM637.657 178.864C638.467 178.864 639.145 178.592 639.689 178.048C640.233 177.493 640.505 176.811 640.505 176C640.505 175.189 640.233 174.512 639.689 173.968C639.145 173.413 638.467 173.136 637.657 173.136C636.857 173.136 636.185 173.413 635.641 173.968C635.097 174.512 634.825 175.189 634.825 176C634.825 176.811 635.097 177.493 635.641 178.048C636.185 178.592 636.857 178.864 637.657 178.864ZM647.764 180.208C646.559 180.208 645.556 179.808 644.756 179.008C643.956 178.197 643.556 177.195 643.556 176C643.556 174.805 643.956 173.808 644.756 173.008C645.556 172.197 646.559 171.792 647.764 171.792C648.553 171.792 649.263 171.984 649.892 172.368C650.521 172.741 650.991 173.248 651.3 173.888L650.132 174.56C649.929 174.133 649.615 173.792 649.188 173.536C648.772 173.28 648.297 173.152 647.764 173.152C646.964 173.152 646.292 173.424 645.748 173.968C645.215 174.512 644.948 175.189 644.948 176C644.948 176.8 645.215 177.472 645.748 178.016C646.292 178.56 646.964 178.832 647.764 178.832C648.297 178.832 648.777 178.709 649.204 178.464C649.631 178.208 649.956 177.867 650.18 177.44L651.364 178.128C651.023 178.757 650.532 179.264 649.892 179.648C649.252 180.021 648.543 180.208 647.764 180.208ZM659.505 180H657.777L654.129 176.208V180H652.737V168.8H654.129V175.536L657.585 172H659.377L655.553 175.872L659.505 180ZM661.039 176.64C661.178 177.355 661.503 177.909 662.015 178.304C662.538 178.699 663.178 178.896 663.935 178.896C664.991 178.896 665.759 178.507 666.239 177.728L667.423 178.4C666.645 179.605 665.471 180.208 663.903 180.208C662.634 180.208 661.599 179.813 660.799 179.024C660.01 178.224 659.615 177.216 659.615 176C659.615 174.795 660.005 173.792 660.783 172.992C661.562 172.192 662.57 171.792 663.807 171.792C664.981 171.792 665.935 172.208 666.671 173.04C667.418 173.861 667.791 174.853 667.791 176.016C667.791 176.219 667.775 176.427 667.743 176.64H661.039ZM663.807 173.104C663.061 173.104 662.442 173.317 661.951 173.744C661.461 174.16 661.157 174.72 661.039 175.424H666.383C666.266 174.667 665.967 174.091 665.487 173.696C665.007 173.301 664.447 173.104 663.807 173.104ZM675.998 168.8H677.39V180H675.998V178.624C675.305 179.68 674.297 180.208 672.974 180.208C671.854 180.208 670.899 179.803 670.11 178.992C669.321 178.171 668.926 177.173 668.926 176C668.926 174.827 669.321 173.835 670.11 173.024C670.899 172.203 671.854 171.792 672.974 171.792C674.297 171.792 675.305 172.32 675.998 173.376V168.8ZM673.15 178.864C673.961 178.864 674.638 178.592 675.182 178.048C675.726 177.493 675.998 176.811 675.998 176C675.998 175.189 675.726 174.512 675.182 173.968C674.638 173.413 673.961 173.136 673.15 173.136C672.35 173.136 671.678 173.413 671.134 173.968C670.59 174.512 670.318 175.189 670.318 176C670.318 176.811 670.59 177.493 671.134 178.048C671.678 178.592 672.35 178.864 673.15 178.864ZM684.696 174.16C684.696 174.469 684.851 174.72 685.16 174.912C685.469 175.093 685.843 175.243 686.28 175.36C686.717 175.467 687.155 175.595 687.592 175.744C688.029 175.883 688.403 176.128 688.712 176.48C689.021 176.821 689.176 177.264 689.176 177.808C689.176 178.533 688.893 179.115 688.328 179.552C687.773 179.989 687.059 180.208 686.184 180.208C685.405 180.208 684.739 180.037 684.184 179.696C683.629 179.355 683.235 178.901 683 178.336L684.2 177.648C684.328 178.032 684.568 178.336 684.92 178.56C685.272 178.784 685.693 178.896 686.184 178.896C686.643 178.896 687.021 178.811 687.32 178.64C687.619 178.459 687.768 178.181 687.768 177.808C687.768 177.499 687.613 177.253 687.304 177.072C686.995 176.88 686.621 176.731 686.184 176.624C685.747 176.507 685.309 176.373 684.872 176.224C684.435 176.075 684.061 175.829 683.752 175.488C683.443 175.147 683.288 174.709 683.288 174.176C683.288 173.483 683.555 172.912 684.088 172.464C684.632 172.016 685.309 171.792 686.12 171.792C686.771 171.792 687.347 171.941 687.848 172.24C688.36 172.528 688.744 172.933 689 173.456L687.832 174.112C687.544 173.429 686.973 173.088 686.12 173.088C685.725 173.088 685.389 173.184 685.112 173.376C684.835 173.557 684.696 173.819 684.696 174.16ZM697.356 178.992C696.534 179.803 695.537 180.208 694.364 180.208C693.19 180.208 692.193 179.803 691.372 178.992C690.561 178.181 690.156 177.184 690.156 176C690.156 174.816 690.561 173.819 691.372 173.008C692.193 172.197 693.19 171.792 694.364 171.792C695.537 171.792 696.534 172.197 697.356 173.008C698.177 173.819 698.588 174.816 698.588 176C698.588 177.184 698.177 178.181 697.356 178.992ZM694.364 178.848C695.164 178.848 695.836 178.576 696.38 178.032C696.924 177.488 697.196 176.811 697.196 176C697.196 175.189 696.924 174.512 696.38 173.968C695.836 173.424 695.164 173.152 694.364 173.152C693.574 173.152 692.908 173.424 692.364 173.968C691.82 174.512 691.548 175.189 691.548 176C691.548 176.811 691.82 177.488 692.364 178.032C692.908 178.576 693.574 178.848 694.364 178.848ZM700.227 180V168.32H701.619V180H700.227ZM709.261 172H710.653V180H709.261V178.848C708.696 179.755 707.832 180.208 706.669 180.208C705.73 180.208 704.978 179.915 704.413 179.328C703.848 178.731 703.565 177.925 703.565 176.912V172H704.957V176.832C704.957 177.483 705.133 177.989 705.485 178.352C705.837 178.704 706.322 178.88 706.941 178.88C707.634 178.88 708.194 178.667 708.621 178.24C709.048 177.803 709.261 177.136 709.261 176.24V172ZM717.123 173.344H714.995V177.68C714.995 178.075 715.069 178.357 715.219 178.528C715.379 178.688 715.619 178.773 715.939 178.784C716.259 178.784 716.653 178.773 717.123 178.752V180C715.907 180.16 715.016 180.064 714.451 179.712C713.885 179.349 713.603 178.672 713.603 177.68V173.344H712.019V172H713.603V170.176L714.995 169.76V172H717.123V173.344ZM719.473 170.544C719.207 170.544 718.983 170.453 718.801 170.272C718.62 170.091 718.529 169.872 718.529 169.616C718.529 169.36 718.62 169.141 718.801 168.96C718.983 168.768 719.207 168.672 719.473 168.672C719.729 168.672 719.948 168.768 720.129 168.96C720.311 169.141 720.401 169.36 720.401 169.616C720.401 169.872 720.311 170.091 720.129 170.272C719.948 170.453 719.729 170.544 719.473 170.544ZM718.769 180V172H720.161V180H718.769ZM729.035 178.992C728.214 179.803 727.217 180.208 726.043 180.208C724.87 180.208 723.873 179.803 723.051 178.992C722.241 178.181 721.835 177.184 721.835 176C721.835 174.816 722.241 173.819 723.051 173.008C723.873 172.197 724.87 171.792 726.043 171.792C727.217 171.792 728.214 172.197 729.035 173.008C729.857 173.819 730.267 174.816 730.267 176C730.267 177.184 729.857 178.181 729.035 178.992ZM726.043 178.848C726.843 178.848 727.515 178.576 728.059 178.032C728.603 177.488 728.875 176.811 728.875 176C728.875 175.189 728.603 174.512 728.059 173.968C727.515 173.424 726.843 173.152 726.043 173.152C725.254 173.152 724.587 173.424 724.043 173.968C723.499 174.512 723.227 175.189 723.227 176C723.227 176.811 723.499 177.488 724.043 178.032C724.587 178.576 725.254 178.848 726.043 178.848ZM735.891 171.792C736.829 171.792 737.581 172.091 738.147 172.688C738.712 173.275 738.995 174.075 738.995 175.088V180H737.603V175.168C737.603 174.517 737.427 174.016 737.075 173.664C736.723 173.301 736.237 173.12 735.619 173.12C734.925 173.12 734.365 173.339 733.939 173.776C733.512 174.203 733.299 174.864 733.299 175.76V180H731.907V172H733.299V173.152C733.864 172.245 734.728 171.792 735.891 171.792ZM742.136 174.16C742.136 174.469 742.291 174.72 742.6 174.912C742.91 175.093 743.283 175.243 743.72 175.36C744.158 175.467 744.595 175.595 745.032 175.744C745.47 175.883 745.843 176.128 746.152 176.48C746.462 176.821 746.616 177.264 746.616 177.808C746.616 178.533 746.334 179.115 745.768 179.552C745.214 179.989 744.499 180.208 743.624 180.208C742.846 180.208 742.179 180.037 741.624 179.696C741.07 179.355 740.675 178.901 740.44 178.336L741.64 177.648C741.768 178.032 742.008 178.336 742.36 178.56C742.712 178.784 743.134 178.896 743.624 178.896C744.083 178.896 744.462 178.811 744.76 178.64C745.059 178.459 745.208 178.181 745.208 177.808C745.208 177.499 745.054 177.253 744.744 177.072C744.435 176.88 744.062 176.731 743.624 176.624C743.187 176.507 742.75 176.373 742.312 176.224C741.875 176.075 741.502 175.829 741.192 175.488C740.883 175.147 740.728 174.709 740.728 174.176C740.728 173.483 740.995 172.912 741.528 172.464C742.072 172.016 742.75 171.792 743.56 171.792C744.211 171.792 744.787 171.941 745.288 172.24C745.8 172.528 746.184 172.933 746.44 173.456L745.272 174.112C744.984 173.429 744.414 173.088 743.56 173.088C743.166 173.088 742.83 173.184 742.552 173.376C742.275 173.557 742.136 173.819 742.136 174.16ZM756.373 169.936C754.965 169.819 754.261 170.427 754.261 171.76V172H756.373V173.344H754.261V180H752.869V173.344H751.589V172H752.869V171.76C752.869 170.683 753.168 169.867 753.765 169.312C754.373 168.757 755.243 168.517 756.373 168.592V169.936ZM763.746 178.992C762.925 179.803 761.927 180.208 760.754 180.208C759.581 180.208 758.583 179.803 757.762 178.992C756.951 178.181 756.546 177.184 756.546 176C756.546 174.816 756.951 173.819 757.762 173.008C758.583 172.197 759.581 171.792 760.754 171.792C761.927 171.792 762.925 172.197 763.746 173.008C764.567 173.819 764.978 174.816 764.978 176C764.978 177.184 764.567 178.181 763.746 178.992ZM760.754 178.848C761.554 178.848 762.226 178.576 762.77 178.032C763.314 177.488 763.586 176.811 763.586 176C763.586 175.189 763.314 174.512 762.77 173.968C762.226 173.424 761.554 173.152 760.754 173.152C759.965 173.152 759.298 173.424 758.754 173.968C758.21 174.512 757.938 175.189 757.938 176C757.938 176.811 758.21 177.488 758.754 178.032C759.298 178.576 759.965 178.848 760.754 178.848ZM768.009 173.344C768.468 172.352 769.3 171.856 770.505 171.856V173.312C769.823 173.28 769.236 173.461 768.745 173.856C768.255 174.251 768.009 174.885 768.009 175.76V180H766.617V172H768.009V173.344ZM777.064 174.16C777.064 174.469 777.219 174.72 777.528 174.912C777.838 175.093 778.211 175.243 778.648 175.36C779.086 175.467 779.523 175.595 779.96 175.744C780.398 175.883 780.771 176.128 781.08 176.48C781.39 176.821 781.544 177.264 781.544 177.808C781.544 178.533 781.262 179.115 780.696 179.552C780.142 179.989 779.427 180.208 778.552 180.208C777.774 180.208 777.107 180.037 776.552 179.696C775.998 179.355 775.603 178.901 775.368 178.336L776.568 177.648C776.696 178.032 776.936 178.336 777.288 178.56C777.64 178.784 778.062 178.896 778.552 178.896C779.011 178.896 779.39 178.811 779.688 178.64C779.987 178.459 780.136 178.181 780.136 177.808C780.136 177.499 779.982 177.253 779.672 177.072C779.363 176.88 778.99 176.731 778.552 176.624C778.115 176.507 777.678 176.373 777.24 176.224C776.803 176.075 776.43 175.829 776.12 175.488C775.811 175.147 775.656 174.709 775.656 174.176C775.656 173.483 775.923 172.912 776.456 172.464C777 172.016 777.678 171.792 778.488 171.792C779.139 171.792 779.715 171.941 780.216 172.24C780.728 172.528 781.112 172.933 781.368 173.456L780.2 174.112C779.912 173.429 779.342 173.088 778.488 173.088C778.094 173.088 777.758 173.184 777.48 173.376C777.203 173.557 777.064 173.819 777.064 174.16ZM783.948 176.64C784.087 177.355 784.412 177.909 784.924 178.304C785.447 178.699 786.087 178.896 786.844 178.896C787.9 178.896 788.668 178.507 789.148 177.728L790.332 178.4C789.553 179.605 788.38 180.208 786.812 180.208C785.543 180.208 784.508 179.813 783.708 179.024C782.919 178.224 782.524 177.216 782.524 176C782.524 174.795 782.913 173.792 783.692 172.992C784.471 172.192 785.479 171.792 786.716 171.792C787.889 171.792 788.844 172.208 789.58 173.04C790.327 173.861 790.7 174.853 790.7 176.016C790.7 176.219 790.684 176.427 790.652 176.64H783.948ZM786.716 173.104C785.969 173.104 785.351 173.317 784.86 173.744C784.369 174.16 784.065 174.72 783.948 175.424H789.292C789.175 174.667 788.876 174.091 788.396 173.696C787.916 173.301 787.356 173.104 786.716 173.104ZM796.043 180.208C794.838 180.208 793.835 179.808 793.035 179.008C792.235 178.197 791.835 177.195 791.835 176C791.835 174.805 792.235 173.808 793.035 173.008C793.835 172.197 794.838 171.792 796.043 171.792C796.832 171.792 797.542 171.984 798.171 172.368C798.8 172.741 799.27 173.248 799.579 173.888L798.411 174.56C798.208 174.133 797.894 173.792 797.467 173.536C797.051 173.28 796.576 173.152 796.043 173.152C795.243 173.152 794.571 173.424 794.027 173.968C793.494 174.512 793.227 175.189 793.227 176C793.227 176.8 793.494 177.472 794.027 178.016C794.571 178.56 795.243 178.832 796.043 178.832C796.576 178.832 797.056 178.709 797.483 178.464C797.91 178.208 798.235 177.867 798.459 177.44L799.643 178.128C799.302 178.757 798.811 179.264 798.171 179.648C797.531 180.021 796.822 180.208 796.043 180.208ZM806.551 172H807.943V180H806.551V178.848C805.986 179.755 805.122 180.208 803.959 180.208C803.021 180.208 802.269 179.915 801.703 179.328C801.138 178.731 800.855 177.925 800.855 176.912V172H802.247V176.832C802.247 177.483 802.423 177.989 802.775 178.352C803.127 178.704 803.613 178.88 804.231 178.88C804.925 178.88 805.485 178.667 805.911 178.24C806.338 177.803 806.551 177.136 806.551 176.24V172ZM811.453 173.344C811.912 172.352 812.744 171.856 813.949 171.856V173.312C813.266 173.28 812.68 173.461 812.189 173.856C811.698 174.251 811.453 174.885 811.453 175.76V180H810.061V172H811.453V173.344ZM815.848 176.64C815.986 177.355 816.312 177.909 816.824 178.304C817.346 178.699 817.986 178.896 818.744 178.896C819.8 178.896 820.568 178.507 821.048 177.728L822.232 178.4C821.453 179.605 820.28 180.208 818.712 180.208C817.442 180.208 816.408 179.813 815.608 179.024C814.818 178.224 814.424 177.216 814.424 176C814.424 174.795 814.813 173.792 815.592 172.992C816.37 172.192 817.378 171.792 818.616 171.792C819.789 171.792 820.744 172.208 821.48 173.04C822.226 173.861 822.6 174.853 822.6 176.016C822.6 176.219 822.584 176.427 822.552 176.64H815.848ZM818.616 173.104C817.869 173.104 817.25 173.317 816.76 173.744C816.269 174.16 815.965 174.72 815.848 175.424H821.192C821.074 174.667 820.776 174.091 820.296 173.696C819.816 173.301 819.256 173.104 818.616 173.104ZM834.949 178.992C834.127 179.803 833.13 180.208 831.957 180.208C830.783 180.208 829.786 179.803 828.965 178.992C828.154 178.181 827.749 177.184 827.749 176C827.749 174.816 828.154 173.819 828.965 173.008C829.786 172.197 830.783 171.792 831.957 171.792C833.13 171.792 834.127 172.197 834.949 173.008C835.77 173.819 836.181 174.816 836.181 176C836.181 177.184 835.77 178.181 834.949 178.992ZM831.957 178.848C832.757 178.848 833.429 178.576 833.973 178.032C834.517 177.488 834.789 176.811 834.789 176C834.789 175.189 834.517 174.512 833.973 173.968C833.429 173.424 832.757 173.152 831.957 173.152C831.167 173.152 830.501 173.424 829.957 173.968C829.413 174.512 829.141 175.189 829.141 176C829.141 176.811 829.413 177.488 829.957 178.032C830.501 178.576 831.167 178.848 831.957 178.848ZM846.932 172H848.388L845.908 180H844.484L842.612 174.08L840.74 180H839.316L836.836 172H838.292L840.052 178.08L841.94 172H843.284L845.172 178.096L846.932 172ZM853.803 171.792C854.741 171.792 855.493 172.091 856.059 172.688C856.624 173.275 856.907 174.075 856.907 175.088V180H855.515V175.168C855.515 174.517 855.339 174.016 854.987 173.664C854.635 173.301 854.149 173.12 853.531 173.12C852.837 173.12 852.277 173.339 851.851 173.776C851.424 174.203 851.211 174.864 851.211 175.76V180H849.819V172H851.211V173.152C851.776 172.245 852.64 171.792 853.803 171.792ZM859.824 176.64C859.963 177.355 860.288 177.909 860.8 178.304C861.323 178.699 861.963 178.896 862.72 178.896C863.776 178.896 864.544 178.507 865.024 177.728L866.208 178.4C865.43 179.605 864.256 180.208 862.688 180.208C861.419 180.208 860.384 179.813 859.584 179.024C858.795 178.224 858.4 177.216 858.4 176C858.4 174.795 858.79 173.792 859.568 172.992C860.347 172.192 861.355 171.792 862.592 171.792C863.766 171.792 864.72 172.208 865.456 173.04C866.203 173.861 866.576 174.853 866.576 176.016C866.576 176.219 866.56 176.427 866.528 176.64H859.824ZM862.592 173.104C861.846 173.104 861.227 173.317 860.736 173.744C860.246 174.16 859.942 174.72 859.824 175.424H865.168C865.051 174.667 864.752 174.091 864.272 173.696C863.792 173.301 863.232 173.104 862.592 173.104ZM869.567 173.344C870.025 172.352 870.857 171.856 872.063 171.856V173.312C871.38 173.28 870.793 173.461 870.303 173.856C869.812 174.251 869.567 174.885 869.567 175.76V180H868.175V172H869.567V173.344ZM874.326 174.16C874.326 174.469 874.481 174.72 874.79 174.912C875.1 175.093 875.473 175.243 875.91 175.36C876.348 175.467 876.785 175.595 877.222 175.744C877.66 175.883 878.033 176.128 878.342 176.48C878.652 176.821 878.806 177.264 878.806 177.808C878.806 178.533 878.524 179.115 877.958 179.552C877.404 179.989 876.689 180.208 875.814 180.208C875.036 180.208 874.369 180.037 873.814 179.696C873.26 179.355 872.865 178.901 872.63 178.336L873.83 177.648C873.958 178.032 874.198 178.336 874.55 178.56C874.902 178.784 875.324 178.896 875.814 178.896C876.273 178.896 876.652 178.811 876.95 178.64C877.249 178.459 877.398 178.181 877.398 177.808C877.398 177.499 877.244 177.253 876.934 177.072C876.625 176.88 876.252 176.731 875.814 176.624C875.377 176.507 874.94 176.373 874.502 176.224C874.065 176.075 873.692 175.829 873.382 175.488C873.073 175.147 872.918 174.709 872.918 174.176C872.918 173.483 873.185 172.912 873.718 172.464C874.262 172.016 874.94 171.792 875.75 171.792C876.401 171.792 876.977 171.941 877.478 172.24C877.99 172.528 878.374 172.933 878.63 173.456L877.462 174.112C877.174 173.429 876.604 173.088 875.75 173.088C875.356 173.088 875.02 173.184 874.742 173.376C874.465 173.557 874.326 173.819 874.326 174.16ZM884.359 171.792C885.297 171.792 886.049 172.091 886.615 172.688C887.18 173.275 887.463 174.075 887.463 175.088V180H886.071V175.168C886.071 174.517 885.895 174.016 885.543 173.664C885.191 173.301 884.705 173.12 884.087 173.12C883.393 173.12 882.833 173.339 882.407 173.776C881.98 174.203 881.767 174.864 881.767 175.76V180H880.375V168.8H881.767V173.152C882.332 172.245 883.196 171.792 884.359 171.792ZM890.108 170.544C889.842 170.544 889.618 170.453 889.436 170.272C889.255 170.091 889.164 169.872 889.164 169.616C889.164 169.36 889.255 169.141 889.436 168.96C889.618 168.768 889.842 168.672 890.108 168.672C890.364 168.672 890.583 168.768 890.764 168.96C890.946 169.141 891.036 169.36 891.036 169.616C891.036 169.872 890.946 170.091 890.764 170.272C890.583 170.453 890.364 170.544 890.108 170.544ZM889.404 180V172H890.796V180H889.404ZM897.334 171.792C898.454 171.792 899.409 172.203 900.198 173.024C900.988 173.835 901.382 174.827 901.382 176C901.382 177.173 900.988 178.171 900.198 178.992C899.409 179.803 898.454 180.208 897.334 180.208C896.012 180.208 895.004 179.68 894.31 178.624V183.2H892.918V172H894.31V173.376C895.004 172.32 896.012 171.792 897.334 171.792ZM897.158 178.864C897.958 178.864 898.63 178.592 899.174 178.048C899.718 177.493 899.99 176.811 899.99 176C899.99 175.189 899.718 174.512 899.174 173.968C898.63 173.413 897.958 173.136 897.158 173.136C896.348 173.136 895.67 173.413 895.126 173.968C894.582 174.512 894.31 175.189 894.31 176C894.31 176.811 894.582 177.493 895.126 178.048C895.67 178.592 896.348 178.864 897.158 178.864ZM904.481 178.352L903.441 182.24H902.241L902.881 178.352H904.481ZM539.816 199.208C538.611 199.208 537.608 198.808 536.808 198.008C536.008 197.197 535.608 196.195 535.608 195C535.608 193.805 536.008 192.808 536.808 192.008C537.608 191.197 538.611 190.792 539.816 190.792C540.605 190.792 541.315 190.984 541.944 191.368C542.573 191.741 543.043 192.248 543.352 192.888L542.184 193.56C541.981 193.133 541.667 192.792 541.24 192.536C540.824 192.28 540.349 192.152 539.816 192.152C539.016 192.152 538.344 192.424 537.8 192.968C537.267 193.512 537 194.189 537 195C537 195.8 537.267 196.472 537.8 197.016C538.344 197.56 539.016 197.832 539.816 197.832C540.349 197.832 540.829 197.709 541.256 197.464C541.683 197.208 542.008 196.867 542.232 196.44L543.416 197.128C543.075 197.757 542.584 198.264 541.944 198.648C541.304 199.021 540.595 199.208 539.816 199.208ZM551.431 197.992C550.61 198.803 549.613 199.208 548.439 199.208C547.266 199.208 546.269 198.803 545.447 197.992C544.637 197.181 544.231 196.184 544.231 195C544.231 193.816 544.637 192.819 545.447 192.008C546.269 191.197 547.266 190.792 548.439 190.792C549.613 190.792 550.61 191.197 551.431 192.008C552.253 192.819 552.663 193.816 552.663 195C552.663 196.184 552.253 197.181 551.431 197.992ZM548.439 197.848C549.239 197.848 549.911 197.576 550.455 197.032C550.999 196.488 551.271 195.811 551.271 195C551.271 194.189 550.999 193.512 550.455 192.968C549.911 192.424 549.239 192.152 548.439 192.152C547.65 192.152 546.983 192.424 546.439 192.968C545.895 193.512 545.623 194.189 545.623 195C545.623 195.811 545.895 196.488 546.439 197.032C546.983 197.576 547.65 197.848 548.439 197.848ZM558.719 190.792C559.839 190.792 560.793 191.203 561.583 192.024C562.372 192.835 562.767 193.827 562.767 195C562.767 196.173 562.372 197.171 561.583 197.992C560.793 198.803 559.839 199.208 558.719 199.208C557.396 199.208 556.388 198.68 555.695 197.624V202.2H554.303V191H555.695V192.376C556.388 191.32 557.396 190.792 558.719 190.792ZM558.543 197.864C559.343 197.864 560.015 197.592 560.559 197.048C561.103 196.493 561.375 195.811 561.375 195C561.375 194.189 561.103 193.512 560.559 192.968C560.015 192.413 559.343 192.136 558.543 192.136C557.732 192.136 557.055 192.413 556.511 192.968C555.967 193.512 555.695 194.189 555.695 195C555.695 195.811 555.967 196.493 556.511 197.048C557.055 197.592 557.732 197.864 558.543 197.864ZM569.698 191H571.186L567.922 199.496C567.58 200.403 567.1 201.091 566.482 201.56C565.874 202.04 565.17 202.253 564.37 202.2V200.904C565.351 200.979 566.071 200.435 566.53 199.272L566.674 198.968L563.186 191H564.674L567.394 197.272L569.698 191ZM573.738 192.344C574.197 191.352 575.029 190.856 576.234 190.856V192.312C575.552 192.28 574.965 192.461 574.474 192.856C573.984 193.251 573.738 193.885 573.738 194.76V199H572.346V191H573.738V192.344ZM578.299 189.544C578.032 189.544 577.808 189.453 577.627 189.272C577.446 189.091 577.355 188.872 577.355 188.616C577.355 188.36 577.446 188.141 577.627 187.96C577.808 187.768 578.032 187.672 578.299 187.672C578.555 187.672 578.774 187.768 578.955 187.96C579.136 188.141 579.227 188.36 579.227 188.616C579.227 188.872 579.136 189.091 578.955 189.272C578.774 189.453 578.555 189.544 578.299 189.544ZM577.595 199V191H578.987V199H577.595ZM587.749 191H589.125V198.664C589.125 199.848 588.725 200.765 587.925 201.416C587.125 202.077 586.165 202.408 585.045 202.408C584.149 202.408 583.376 202.237 582.725 201.896C582.074 201.565 581.584 201.085 581.253 200.456L582.469 199.768C582.906 200.664 583.776 201.112 585.077 201.112C585.909 201.112 586.56 200.893 587.029 200.456C587.509 200.019 587.749 199.421 587.749 198.664V197.528C587.045 198.595 586.042 199.128 584.741 199.128C583.6 199.128 582.634 198.723 581.845 197.912C581.056 197.101 580.661 196.115 580.661 194.952C580.661 193.789 581.056 192.808 581.845 192.008C582.634 191.197 583.6 190.792 584.741 190.792C586.053 190.792 587.056 191.32 587.749 192.376V191ZM582.869 196.984C583.413 197.528 584.09 197.8 584.901 197.8C585.712 197.8 586.389 197.528 586.933 196.984C587.477 196.44 587.749 195.763 587.749 194.952C587.749 194.152 587.477 193.48 586.933 192.936C586.389 192.392 585.712 192.12 584.901 192.12C584.09 192.12 583.413 192.392 582.869 192.936C582.325 193.48 582.053 194.152 582.053 194.952C582.053 195.763 582.325 196.44 582.869 196.984ZM595.216 190.792C596.155 190.792 596.907 191.091 597.472 191.688C598.038 192.275 598.32 193.075 598.32 194.088V199H596.928V194.168C596.928 193.517 596.752 193.016 596.4 192.664C596.048 192.301 595.563 192.12 594.944 192.12C594.251 192.12 593.691 192.339 593.264 192.776C592.838 193.203 592.624 193.864 592.624 194.76V199H591.232V187.8H592.624V192.152C593.19 191.245 594.054 190.792 595.216 190.792ZM604.614 192.344H602.486V196.68C602.486 197.075 602.561 197.357 602.71 197.528C602.87 197.688 603.11 197.773 603.43 197.784C603.75 197.784 604.145 197.773 604.614 197.752V199C603.398 199.16 602.507 199.064 601.942 198.712C601.377 198.349 601.094 197.672 601.094 196.68V192.344H599.51V191H601.094V189.176L602.486 188.76V191H604.614V192.344ZM607.07 193.16C607.07 193.469 607.224 193.72 607.534 193.912C607.843 194.093 608.216 194.243 608.654 194.36C609.091 194.467 609.528 194.595 609.966 194.744C610.403 194.883 610.776 195.128 611.086 195.48C611.395 195.821 611.55 196.264 611.55 196.808C611.55 197.533 611.267 198.115 610.702 198.552C610.147 198.989 609.432 199.208 608.558 199.208C607.779 199.208 607.112 199.037 606.558 198.696C606.003 198.355 605.608 197.901 605.374 197.336L606.574 196.648C606.702 197.032 606.942 197.336 607.294 197.56C607.646 197.784 608.067 197.896 608.558 197.896C609.016 197.896 609.395 197.811 609.694 197.64C609.992 197.459 610.142 197.181 610.142 196.808C610.142 196.499 609.987 196.253 609.678 196.072C609.368 195.88 608.995 195.731 608.558 195.624C608.12 195.507 607.683 195.373 607.246 195.224C606.808 195.075 606.435 194.829 606.126 194.488C605.816 194.147 605.662 193.709 605.662 193.176C605.662 192.483 605.928 191.912 606.462 191.464C607.006 191.016 607.683 190.792 608.494 190.792C609.144 190.792 609.72 190.941 610.222 191.24C610.734 191.528 611.118 191.933 611.374 192.456L610.206 193.112C609.918 192.429 609.347 192.088 608.494 192.088C608.099 192.088 607.763 192.184 607.486 192.376C607.208 192.557 607.07 192.819 607.07 193.16ZM615.104 197.352L614.064 201.24H612.864L613.504 197.352H615.104ZM627.692 191H629.084V199H627.692V197.624C626.999 198.68 625.991 199.208 624.668 199.208C623.548 199.208 622.593 198.803 621.804 197.992C621.015 197.171 620.62 196.173 620.62 195C620.62 193.827 621.015 192.835 621.804 192.024C622.593 191.203 623.548 190.792 624.668 190.792C625.991 190.792 626.999 191.32 627.692 192.376V191ZM624.844 197.864C625.655 197.864 626.332 197.592 626.876 197.048C627.42 196.493 627.692 195.811 627.692 195C627.692 194.189 627.42 193.512 626.876 192.968C626.332 192.413 625.655 192.136 624.844 192.136C624.044 192.136 623.372 192.413 622.828 192.968C622.284 193.512 622.012 194.189 622.012 195C622.012 195.811 622.284 196.493 622.828 197.048C623.372 197.592 624.044 197.864 624.844 197.864ZM635.175 190.792C636.114 190.792 636.866 191.091 637.431 191.688C637.997 192.275 638.279 193.075 638.279 194.088V199H636.887V194.168C636.887 193.517 636.711 193.016 636.359 192.664C636.007 192.301 635.522 192.12 634.903 192.12C634.21 192.12 633.65 192.339 633.223 192.776C632.797 193.203 632.583 193.864 632.583 194.76V199H631.191V191H632.583V192.152C633.149 191.245 634.013 190.792 635.175 190.792ZM646.845 187.8H648.237V199H646.845V197.624C646.152 198.68 645.144 199.208 643.821 199.208C642.701 199.208 641.746 198.803 640.957 197.992C640.168 197.171 639.773 196.173 639.773 195C639.773 193.827 640.168 192.835 640.957 192.024C641.746 191.203 642.701 190.792 643.821 190.792C645.144 190.792 646.152 191.32 646.845 192.376V187.8ZM643.997 197.864C644.808 197.864 645.485 197.592 646.029 197.048C646.573 196.493 646.845 195.811 646.845 195C646.845 194.189 646.573 193.512 646.029 192.968C645.485 192.413 644.808 192.136 643.997 192.136C643.197 192.136 642.525 192.413 641.981 192.968C641.437 193.512 641.165 194.189 641.165 195C641.165 195.811 641.437 196.493 641.981 197.048C642.525 197.592 643.197 197.864 643.997 197.864ZM658.759 190.792C659.879 190.792 660.834 191.203 661.623 192.024C662.412 192.835 662.807 193.827 662.807 195C662.807 196.173 662.412 197.171 661.623 197.992C660.834 198.803 659.879 199.208 658.759 199.208C657.436 199.208 656.428 198.68 655.735 197.624V202.2H654.343V191H655.735V192.376C656.428 191.32 657.436 190.792 658.759 190.792ZM658.583 197.864C659.383 197.864 660.055 197.592 660.599 197.048C661.143 196.493 661.415 195.811 661.415 195C661.415 194.189 661.143 193.512 660.599 192.968C660.055 192.413 659.383 192.136 658.583 192.136C657.772 192.136 657.095 192.413 656.551 192.968C656.007 193.512 655.735 194.189 655.735 195C655.735 195.811 656.007 196.493 656.551 197.048C657.095 197.592 657.772 197.864 658.583 197.864ZM671.09 191H672.482V199H671.09V197.624C670.397 198.68 669.389 199.208 668.066 199.208C666.946 199.208 665.992 198.803 665.202 197.992C664.413 197.171 664.018 196.173 664.018 195C664.018 193.827 664.413 192.835 665.202 192.024C665.992 191.203 666.946 190.792 668.066 190.792C669.389 190.792 670.397 191.32 671.09 192.376V191ZM668.242 197.864C669.053 197.864 669.73 197.592 670.274 197.048C670.818 196.493 671.09 195.811 671.09 195C671.09 194.189 670.818 193.512 670.274 192.968C669.73 192.413 669.053 192.136 668.242 192.136C667.442 192.136 666.77 192.413 666.226 192.968C665.682 193.512 665.41 194.189 665.41 195C665.41 195.811 665.682 196.493 666.226 197.048C666.77 197.592 667.442 197.864 668.242 197.864ZM678.942 192.344H676.814V196.68C676.814 197.075 676.888 197.357 677.038 197.528C677.198 197.688 677.438 197.773 677.758 197.784C678.078 197.784 678.472 197.773 678.942 197.752V199C677.726 199.16 676.835 199.064 676.27 198.712C675.704 198.349 675.422 197.672 675.422 196.68V192.344H673.838V191H675.422V189.176L676.814 188.76V191H678.942V192.344ZM681.158 195.64C681.297 196.355 681.622 196.909 682.134 197.304C682.657 197.699 683.297 197.896 684.054 197.896C685.11 197.896 685.878 197.507 686.358 196.728L687.542 197.4C686.763 198.605 685.59 199.208 684.022 199.208C682.753 199.208 681.718 198.813 680.918 198.024C680.129 197.224 679.734 196.216 679.734 195C679.734 193.795 680.123 192.792 680.902 191.992C681.681 191.192 682.689 190.792 683.926 190.792C685.099 190.792 686.054 191.208 686.79 192.04C687.537 192.861 687.91 193.853 687.91 195.016C687.91 195.219 687.894 195.427 687.862 195.64H681.158ZM683.926 192.104C683.179 192.104 682.561 192.317 682.07 192.744C681.579 193.16 681.275 193.72 681.158 194.424H686.502C686.385 193.667 686.086 193.091 685.606 192.696C685.126 192.301 684.566 192.104 683.926 192.104ZM693.492 190.792C694.431 190.792 695.183 191.091 695.748 191.688C696.314 192.275 696.596 193.075 696.596 194.088V199H695.204V194.168C695.204 193.517 695.028 193.016 694.676 192.664C694.324 192.301 693.839 192.12 693.22 192.12C692.527 192.12 691.967 192.339 691.54 192.776C691.114 193.203 690.9 193.864 690.9 194.76V199H689.508V191H690.9V192.152C691.466 191.245 692.33 190.792 693.492 190.792ZM702.89 192.344H700.762V196.68C700.762 197.075 700.837 197.357 700.986 197.528C701.146 197.688 701.386 197.773 701.706 197.784C702.026 197.784 702.421 197.773 702.89 197.752V199C701.674 199.16 700.783 199.064 700.218 198.712C699.653 198.349 699.37 197.672 699.37 196.68V192.344H697.786V191H699.37V189.176L700.762 188.76V191H702.89V192.344ZM717.222 190.792C718.118 190.792 718.843 191.085 719.398 191.672C719.952 192.248 720.23 193.032 720.23 194.024V199H718.838V194.072C718.838 193.453 718.678 192.973 718.358 192.632C718.038 192.291 717.611 192.12 717.078 192.12C716.48 192.12 716 192.323 715.638 192.728C715.286 193.123 715.11 193.731 715.11 194.552V199H713.718V194.072C713.718 193.453 713.563 192.973 713.254 192.632C712.955 192.291 712.544 192.12 712.022 192.12C711.435 192.12 710.944 192.323 710.55 192.728C710.166 193.133 709.974 193.741 709.974 194.552V199H708.582V191H709.974V192.072C710.518 191.219 711.312 190.792 712.358 190.792C713.435 190.792 714.219 191.245 714.71 192.152C715.264 191.245 716.102 190.792 717.222 190.792ZM728.782 191H730.174V199H728.782V197.624C728.089 198.68 727.081 199.208 725.758 199.208C724.638 199.208 723.684 198.803 722.894 197.992C722.105 197.171 721.71 196.173 721.71 195C721.71 193.827 722.105 192.835 722.894 192.024C723.684 191.203 724.638 190.792 725.758 190.792C727.081 190.792 728.089 191.32 728.782 192.376V191ZM725.934 197.864C726.745 197.864 727.422 197.592 727.966 197.048C728.51 196.493 728.782 195.811 728.782 195C728.782 194.189 728.51 193.512 727.966 192.968C727.422 192.413 726.745 192.136 725.934 192.136C725.134 192.136 724.462 192.413 723.918 192.968C723.374 193.512 723.102 194.189 723.102 195C723.102 195.811 723.374 196.493 723.918 197.048C724.462 197.592 725.134 197.864 725.934 197.864ZM736.266 190.792C737.204 190.792 737.956 191.091 738.522 191.688C739.087 192.275 739.37 193.075 739.37 194.088V199H737.978V194.168C737.978 193.517 737.802 193.016 737.45 192.664C737.098 192.301 736.612 192.12 735.994 192.12C735.3 192.12 734.74 192.339 734.314 192.776C733.887 193.203 733.674 193.864 733.674 194.76V199H732.282V191H733.674V192.152C734.239 191.245 735.103 190.792 736.266 190.792ZM747.935 191H749.327V199H747.935V197.624C747.242 198.68 746.234 199.208 744.911 199.208C743.791 199.208 742.837 198.803 742.047 197.992C741.258 197.171 740.863 196.173 740.863 195C740.863 193.827 741.258 192.835 742.047 192.024C742.837 191.203 743.791 190.792 744.911 190.792C746.234 190.792 747.242 191.32 747.935 192.376V191ZM745.087 197.864C745.898 197.864 746.575 197.592 747.119 197.048C747.663 196.493 747.935 195.811 747.935 195C747.935 194.189 747.663 193.512 747.119 192.968C746.575 192.413 745.898 192.136 745.087 192.136C744.287 192.136 743.615 192.413 743.071 192.968C742.527 193.512 742.255 194.189 742.255 195C742.255 195.811 742.527 196.493 743.071 197.048C743.615 197.592 744.287 197.864 745.087 197.864ZM758.075 191H759.451V198.664C759.451 199.848 759.051 200.765 758.251 201.416C757.451 202.077 756.491 202.408 755.371 202.408C754.475 202.408 753.701 202.237 753.051 201.896C752.4 201.565 751.909 201.085 751.579 200.456L752.795 199.768C753.232 200.664 754.101 201.112 755.403 201.112C756.235 201.112 756.885 200.893 757.355 200.456C757.835 200.019 758.075 199.421 758.075 198.664V197.528C757.371 198.595 756.368 199.128 755.067 199.128C753.925 199.128 752.96 198.723 752.171 197.912C751.381 197.101 750.987 196.115 750.987 194.952C750.987 193.789 751.381 192.808 752.171 192.008C752.96 191.197 753.925 190.792 755.067 190.792C756.379 190.792 757.381 191.32 758.075 192.376V191ZM753.195 196.984C753.739 197.528 754.416 197.8 755.227 197.8C756.037 197.8 756.715 197.528 757.259 196.984C757.803 196.44 758.075 195.763 758.075 194.952C758.075 194.152 757.803 193.48 757.259 192.936C756.715 192.392 756.037 192.12 755.227 192.12C754.416 192.12 753.739 192.392 753.195 192.936C752.651 193.48 752.379 194.152 752.379 194.952C752.379 195.763 752.651 196.44 753.195 196.984ZM762.534 195.64C762.673 196.355 762.998 196.909 763.51 197.304C764.033 197.699 764.673 197.896 765.43 197.896C766.486 197.896 767.254 197.507 767.734 196.728L768.918 197.4C768.139 198.605 766.966 199.208 765.398 199.208C764.129 199.208 763.094 198.813 762.294 198.024C761.505 197.224 761.11 196.216 761.11 195C761.11 193.795 761.499 192.792 762.278 191.992C763.057 191.192 764.065 190.792 765.302 190.792C766.475 190.792 767.43 191.208 768.166 192.04C768.913 192.861 769.286 193.853 769.286 195.016C769.286 195.219 769.27 195.427 769.238 195.64H762.534ZM765.302 192.104C764.555 192.104 763.937 192.317 763.446 192.744C762.955 193.16 762.651 193.72 762.534 194.424H767.878C767.761 193.667 767.462 193.091 766.982 192.696C766.502 192.301 765.942 192.104 765.302 192.104ZM779.525 190.792C780.421 190.792 781.146 191.085 781.701 191.672C782.255 192.248 782.533 193.032 782.533 194.024V199H781.141V194.072C781.141 193.453 780.981 192.973 780.661 192.632C780.341 192.291 779.914 192.12 779.381 192.12C778.783 192.12 778.303 192.323 777.941 192.728C777.589 193.123 777.413 193.731 777.413 194.552V199H776.021V194.072C776.021 193.453 775.866 192.973 775.557 192.632C775.258 192.291 774.847 192.12 774.325 192.12C773.738 192.12 773.247 192.323 772.853 192.728C772.469 193.133 772.277 193.741 772.277 194.552V199H770.885V191H772.277V192.072C772.821 191.219 773.615 190.792 774.661 190.792C775.738 190.792 776.522 191.245 777.013 192.152C777.567 191.245 778.405 190.792 779.525 190.792ZM785.437 195.64C785.576 196.355 785.901 196.909 786.413 197.304C786.936 197.699 787.576 197.896 788.333 197.896C789.389 197.896 790.157 197.507 790.637 196.728L791.821 197.4C791.042 198.605 789.869 199.208 788.301 199.208C787.032 199.208 785.997 198.813 785.197 198.024C784.408 197.224 784.013 196.216 784.013 195C784.013 193.795 784.402 192.792 785.181 191.992C785.96 191.192 786.968 190.792 788.205 190.792C789.378 190.792 790.333 191.208 791.069 192.04C791.816 192.861 792.189 193.853 792.189 195.016C792.189 195.219 792.173 195.427 792.141 195.64H785.437ZM788.205 192.104C787.458 192.104 786.84 192.317 786.349 192.744C785.858 193.16 785.554 193.72 785.437 194.424H790.781C790.664 193.667 790.365 193.091 789.885 192.696C789.405 192.301 788.845 192.104 788.205 192.104ZM797.772 190.792C798.71 190.792 799.462 191.091 800.028 191.688C800.593 192.275 800.876 193.075 800.876 194.088V199H799.484V194.168C799.484 193.517 799.308 193.016 798.956 192.664C798.604 192.301 798.118 192.12 797.5 192.12C796.806 192.12 796.246 192.339 795.82 192.776C795.393 193.203 795.18 193.864 795.18 194.76V199H793.788V191H795.18V192.152C795.745 191.245 796.609 190.792 797.772 190.792ZM807.169 192.344H805.041V196.68C805.041 197.075 805.116 197.357 805.265 197.528C805.425 197.688 805.665 197.773 805.985 197.784C806.305 197.784 806.7 197.773 807.169 197.752V199C805.953 199.16 805.063 199.064 804.497 198.712C803.932 198.349 803.649 197.672 803.649 196.68V192.344H802.065V191H803.649V189.176L805.041 188.76V191H807.169V192.344ZM813.565 189.544C813.298 189.544 813.074 189.453 812.893 189.272C812.712 189.091 812.621 188.872 812.621 188.616C812.621 188.36 812.712 188.141 812.893 187.96C813.074 187.768 813.298 187.672 813.565 187.672C813.821 187.672 814.04 187.768 814.221 187.96C814.402 188.141 814.493 188.36 814.493 188.616C814.493 188.872 814.402 189.091 814.221 189.272C814.04 189.453 813.821 189.544 813.565 189.544ZM812.861 199V191H814.253V199H812.861ZM820.359 190.792C821.298 190.792 822.05 191.091 822.615 191.688C823.18 192.275 823.463 193.075 823.463 194.088V199H822.071V194.168C822.071 193.517 821.895 193.016 821.543 192.664C821.191 192.301 820.706 192.12 820.087 192.12C819.394 192.12 818.834 192.339 818.407 192.776C817.98 193.203 817.767 193.864 817.767 194.76V199H816.375V191H817.767V192.152C818.332 191.245 819.196 190.792 820.359 190.792ZM833.755 192.344H831.627V196.68C831.627 197.075 831.702 197.357 831.851 197.528C832.011 197.688 832.251 197.773 832.571 197.784C832.891 197.784 833.286 197.773 833.755 197.752V199C832.539 199.16 831.648 199.064 831.083 198.712C830.518 198.349 830.235 197.672 830.235 196.68V192.344H828.651V191H830.235V189.176L831.627 188.76V191H833.755V192.344ZM839.385 190.792C840.324 190.792 841.076 191.091 841.641 191.688C842.207 192.275 842.489 193.075 842.489 194.088V199H841.097V194.168C841.097 193.517 840.921 193.016 840.569 192.664C840.217 192.301 839.732 192.12 839.113 192.12C838.42 192.12 837.86 192.339 837.433 192.776C837.007 193.203 836.793 193.864 836.793 194.76V199H835.401V187.8H836.793V192.152C837.359 191.245 838.223 190.792 839.385 190.792ZM845.407 195.64C845.546 196.355 845.871 196.909 846.383 197.304C846.906 197.699 847.546 197.896 848.303 197.896C849.359 197.896 850.127 197.507 850.607 196.728L851.791 197.4C851.012 198.605 849.839 199.208 848.271 199.208C847.002 199.208 845.967 198.813 845.167 198.024C844.378 197.224 843.983 196.216 843.983 195C843.983 193.795 844.372 192.792 845.151 191.992C845.93 191.192 846.938 190.792 848.175 190.792C849.348 190.792 850.303 191.208 851.039 192.04C851.786 192.861 852.159 193.853 852.159 195.016C852.159 195.219 852.143 195.427 852.111 195.64H845.407ZM848.175 192.104C847.428 192.104 846.81 192.317 846.319 192.744C845.828 193.16 845.524 193.72 845.407 194.424H850.751C850.634 193.667 850.335 193.091 849.855 192.696C849.375 192.301 848.815 192.104 848.175 192.104ZM864.38 187.8H865.772V199H864.38V197.624C863.687 198.68 862.679 199.208 861.356 199.208C860.236 199.208 859.281 198.803 858.492 197.992C857.703 197.171 857.308 196.173 857.308 195C857.308 193.827 857.703 192.835 858.492 192.024C859.281 191.203 860.236 190.792 861.356 190.792C862.679 190.792 863.687 191.32 864.38 192.376V187.8ZM861.532 197.864C862.343 197.864 863.02 197.592 863.564 197.048C864.108 196.493 864.38 195.811 864.38 195C864.38 194.189 864.108 193.512 863.564 192.968C863.02 192.413 862.343 192.136 861.532 192.136C860.732 192.136 860.06 192.413 859.516 192.968C858.972 193.512 858.7 194.189 858.7 195C858.7 195.811 858.972 196.493 859.516 197.048C860.06 197.592 860.732 197.864 861.532 197.864ZM868.583 189.544C868.317 189.544 868.093 189.453 867.911 189.272C867.73 189.091 867.639 188.872 867.639 188.616C867.639 188.36 867.73 188.141 867.911 187.96C868.093 187.768 868.317 187.672 868.583 187.672C868.839 187.672 869.058 187.768 869.239 187.96C869.421 188.141 869.511 188.36 869.511 188.616C869.511 188.872 869.421 189.091 869.239 189.272C869.058 189.453 868.839 189.544 868.583 189.544ZM867.879 199V191H869.271V199H867.879ZM878.033 191H879.409V198.664C879.409 199.848 879.009 200.765 878.209 201.416C877.409 202.077 876.449 202.408 875.329 202.408C874.433 202.408 873.66 202.237 873.009 201.896C872.359 201.565 871.868 201.085 871.537 200.456L872.753 199.768C873.191 200.664 874.06 201.112 875.361 201.112C876.193 201.112 876.844 200.893 877.313 200.456C877.793 200.019 878.033 199.421 878.033 198.664V197.528C877.329 198.595 876.327 199.128 875.025 199.128C873.884 199.128 872.919 198.723 872.129 197.912C871.34 197.101 870.945 196.115 870.945 194.952C870.945 193.789 871.34 192.808 872.129 192.008C872.919 191.197 873.884 190.792 875.025 190.792C876.337 190.792 877.34 191.32 878.033 192.376V191ZM873.153 196.984C873.697 197.528 874.375 197.8 875.185 197.8C875.996 197.8 876.673 197.528 877.217 196.984C877.761 196.44 878.033 195.763 878.033 194.952C878.033 194.152 877.761 193.48 877.217 192.936C876.673 192.392 875.996 192.12 875.185 192.12C874.375 192.12 873.697 192.392 873.153 192.936C872.609 193.48 872.337 194.152 872.337 194.952C872.337 195.763 872.609 196.44 873.153 196.984ZM882.221 189.544C881.954 189.544 881.73 189.453 881.549 189.272C881.368 189.091 881.277 188.872 881.277 188.616C881.277 188.36 881.368 188.141 881.549 187.96C881.73 187.768 881.954 187.672 882.221 187.672C882.477 187.672 882.696 187.768 882.877 187.96C883.058 188.141 883.149 188.36 883.149 188.616C883.149 188.872 883.058 189.091 882.877 189.272C882.696 189.453 882.477 189.544 882.221 189.544ZM881.517 199V191H882.909V199H881.517ZM889.383 192.344H887.255V196.68C887.255 197.075 887.33 197.357 887.479 197.528C887.639 197.688 887.879 197.773 888.199 197.784C888.519 197.784 888.914 197.773 889.383 197.752V199C888.167 199.16 887.276 199.064 886.711 198.712C886.146 198.349 885.863 197.672 885.863 196.68V192.344H884.279V191H885.863V189.176L887.255 188.76V191H889.383V192.344ZM897.247 191H898.639V199H897.247V197.624C896.554 198.68 895.546 199.208 894.223 199.208C893.103 199.208 892.148 198.803 891.359 197.992C890.57 197.171 890.175 196.173 890.175 195C890.175 193.827 890.57 192.835 891.359 192.024C892.148 191.203 893.103 190.792 894.223 190.792C895.546 190.792 896.554 191.32 897.247 192.376V191ZM894.399 197.864C895.21 197.864 895.887 197.592 896.431 197.048C896.975 196.493 897.247 195.811 897.247 195C897.247 194.189 896.975 193.512 896.431 192.968C895.887 192.413 895.21 192.136 894.399 192.136C893.599 192.136 892.927 192.413 892.383 192.968C891.839 193.512 891.567 194.189 891.567 195C891.567 195.811 891.839 196.493 892.383 197.048C892.927 197.592 893.599 197.864 894.399 197.864ZM900.746 199V187.32H902.138V199H900.746ZM545.48 210H546.936L544.456 218H543.032L541.16 212.08L539.288 218H537.864L535.384 210H536.84L538.6 216.08L540.488 210H541.832L543.72 216.096L545.48 210ZM554.806 216.992C553.985 217.803 552.988 218.208 551.814 218.208C550.641 218.208 549.644 217.803 548.822 216.992C548.012 216.181 547.606 215.184 547.606 214C547.606 212.816 548.012 211.819 548.822 211.008C549.644 210.197 550.641 209.792 551.814 209.792C552.988 209.792 553.985 210.197 554.806 211.008C555.628 211.819 556.038 212.816 556.038 214C556.038 215.184 555.628 216.181 554.806 216.992ZM551.814 216.848C552.614 216.848 553.286 216.576 553.83 216.032C554.374 215.488 554.646 214.811 554.646 214C554.646 213.189 554.374 212.512 553.83 211.968C553.286 211.424 552.614 211.152 551.814 211.152C551.025 211.152 550.358 211.424 549.814 211.968C549.27 212.512 548.998 213.189 548.998 214C548.998 214.811 549.27 215.488 549.814 216.032C550.358 216.576 551.025 216.848 551.814 216.848ZM559.07 211.344C559.528 210.352 560.36 209.856 561.566 209.856V211.312C560.883 211.28 560.296 211.461 559.806 211.856C559.315 212.251 559.07 212.885 559.07 213.76V218H557.678V210H559.07V211.344ZM562.926 218V206.32H564.318V218H562.926ZM573.064 206.8H574.456V218H573.064V216.624C572.371 217.68 571.363 218.208 570.04 218.208C568.92 218.208 567.966 217.803 567.176 216.992C566.387 216.171 565.992 215.173 565.992 214C565.992 212.827 566.387 211.835 567.176 211.024C567.966 210.203 568.92 209.792 570.04 209.792C571.363 209.792 572.371 210.32 573.064 211.376V206.8ZM570.216 216.864C571.027 216.864 571.704 216.592 572.248 216.048C572.792 215.493 573.064 214.811 573.064 214C573.064 213.189 572.792 212.512 572.248 211.968C571.704 211.413 571.027 211.136 570.216 211.136C569.416 211.136 568.744 211.413 568.2 211.968C567.656 212.512 567.384 213.189 567.384 214C567.384 214.811 567.656 215.493 568.2 216.048C568.744 216.592 569.416 216.864 570.216 216.864ZM577.444 218.176C577.156 218.176 576.91 218.075 576.708 217.872C576.505 217.669 576.404 217.424 576.404 217.136C576.404 216.848 576.505 216.603 576.708 216.4C576.91 216.197 577.156 216.096 577.444 216.096C577.742 216.096 577.988 216.197 578.18 216.4C578.382 216.603 578.484 216.848 578.484 217.136C578.484 217.424 578.382 217.669 578.18 217.872C577.988 218.075 577.742 218.176 577.444 218.176Z" fill="black"/>
<defs>
<linearGradient id="paint0_linear_192_130" x1="0" y1="175.5" x2="1040" y2="175.5" gradientUnits="userSpaceOnUse">
<stop stop-color="#FFC30B"/>
<stop offset="1" stop-color="#FF8800"/>
</linearGradient>
</defs>
</svg>
