<svg width="972" height="48" viewBox="0 0 972 48" fill="none" xmlns="http://www.w3.org/2000/svg">
<line x1="356" y1="24.5" x2="616" y2="24.5" stroke="white" stroke-dasharray="2 2"/>
<line x1="48" y1="24.5" x2="308" y2="24.5" stroke="white" stroke-dasharray="2 2"/>
<line x1="664" y1="24.5" x2="924" y2="24.5" stroke="white" stroke-dasharray="2 2"/>
<rect width="48" height="48" rx="24" fill="#FFC000"/>
<path d="M20.9 18.5V16.42H25.06V31H22.76V18.5H20.9Z" fill="black"/>
<rect x="308" width="48" height="48" rx="24" fill="#FFC000"/>
<path d="M328.46 27.9C329.74 26.7933 330.747 25.8867 331.48 25.18C332.227 24.46 332.847 23.7133 333.34 22.94C333.833 22.1667 334.08 21.3933 334.08 20.62C334.08 19.82 333.887 19.1933 333.5 18.74C333.127 18.2867 332.533 18.06 331.72 18.06C330.933 18.06 330.32 18.3133 329.88 18.82C329.453 19.3133 329.227 19.98 329.2 20.82H327C327.04 19.3 327.493 18.14 328.36 17.34C329.24 16.5267 330.353 16.12 331.7 16.12C333.153 16.12 334.287 16.52 335.1 17.32C335.927 18.12 336.34 19.1867 336.34 20.52C336.34 21.48 336.093 22.4067 335.6 23.3C335.12 24.18 334.54 24.9733 333.86 25.68C333.193 26.3733 332.34 27.18 331.3 28.1L330.4 28.9H336.74V30.8H327.02V29.14L328.46 27.9Z" fill="black"/>
<rect x="616" width="48" height="48" rx="24" fill="#FFC000"/>
<path d="M635.16 20.02C635.24 18.78 635.713 17.8133 636.58 17.12C637.46 16.4267 638.58 16.08 639.94 16.08C640.873 16.08 641.68 16.2467 642.36 16.58C643.04 16.9133 643.553 17.3667 643.9 17.94C644.247 18.5133 644.42 19.16 644.42 19.88C644.42 20.7067 644.2 21.4133 643.76 22C643.32 22.5867 642.793 22.98 642.18 23.18V23.26C642.967 23.5 643.58 23.94 644.02 24.58C644.46 25.2067 644.68 26.0133 644.68 27C644.68 27.7867 644.5 28.4867 644.14 29.1C643.78 29.7133 643.247 30.2 642.54 30.56C641.833 30.9067 640.987 31.08 640 31.08C638.56 31.08 637.373 30.7133 636.44 29.98C635.52 29.2333 635.027 28.1667 634.96 26.78H637.16C637.213 27.4867 637.487 28.0667 637.98 28.52C638.473 28.96 639.14 29.18 639.98 29.18C640.793 29.18 641.42 28.96 641.86 28.52C642.3 28.0667 642.52 27.4867 642.52 26.78C642.52 25.8467 642.22 25.1867 641.62 24.8C641.033 24.4 640.127 24.2 638.9 24.2H638.38V22.32H638.92C640 22.3067 640.82 22.1267 641.38 21.78C641.953 21.4333 642.24 20.8867 642.24 20.14C642.24 19.5 642.033 18.9933 641.62 18.62C641.207 18.2333 640.62 18.04 639.86 18.04C639.113 18.04 638.533 18.2333 638.12 18.62C637.707 18.9933 637.46 19.46 637.38 20.02H635.16Z" fill="black"/>
<rect x="924" width="48" height="48" rx="24" fill="#FFC000"/>
<path d="M941.92 29.96V28.24L948.64 18.6H951.4V27.98H953.26V29.96H951.4V33H949.16V29.96H941.92ZM949.26 20.92L944.54 27.98H949.26V20.92Z" fill="black"/>
</svg>
