<svg width="44" height="43" viewBox="0 0 44 43" fill="none" xmlns="http://www.w3.org/2000/svg">
<path fill-rule="evenodd" clip-rule="evenodd" d="M9.1999 5.66709L12.2665 0H26.4652V8.59893H31.8009L34.5979 13.0697L38.4003 10.9354L34.5979 4.20117H30.7337V0H36.7322L44 12.3339L33.2668 18.602L29.734 13.0697H19.6635L14.867 21.2699L19.6635 29.8688H29.734L32.8006 24.2017L44 30.5989L37.2658 42.8655H30.7337V39.0687H34.5979L38.4003 32.1322L34.4013 29.5992L31.8009 34.07H26.8639V42.8655H12.5979L9.1999 37.0692L12.5979 35.1989L14.867 38.7317H22.6684V34.07H17.4674L14.867 29.5992L7.26781 34.07L0 21.2699L7.26781 9.1999L14.5974 13.3337L17.0687 8.59893H22.6684V4.20117H14.867L12.9967 7.73398L9.1999 5.66709ZM12.0753 25.9711L8.25039 28.229L4.14469 21.461L8.25039 14.6257L12.0753 16.8836L9.68261 21.461L12.0753 25.9711Z" fill="#FFC000"/>
</svg>
