<svg width="56" height="56" viewBox="0 0 56 56" fill="none" xmlns="http://www.w3.org/2000/svg">
<circle cx="28" cy="28" r="28" fill="url(#paint0_linear_10_69067)"/>
<path d="M30.3763 16.0008C30.3763 16.1434 30.3763 16.2515 30.3763 16.3596C30.3763 17.5633 30.3711 18.7677 30.3778 19.9714C30.3888 21.8493 31.6785 23.1331 33.5557 23.139C34.7689 23.1427 35.9822 23.1398 37.1947 23.1398C37.2925 23.1398 37.391 23.1398 37.5153 23.1398C37.5153 23.2706 37.5153 23.3692 37.5153 23.4677C37.5153 28.3199 37.5153 33.1729 37.5153 38.0251C37.5153 39.3663 36.6719 40.2162 35.3344 40.2162C30.28 40.2177 25.2256 40.2177 20.1704 40.2162C18.8461 40.2155 18.0006 39.3655 18.0006 38.0435C17.9998 31.417 17.9998 24.7912 18.0006 18.1648C18.0006 16.8537 18.8417 16.0023 20.1483 16.0015C23.4564 15.9986 26.7653 16.0008 30.0741 16.0008C30.1631 16.0008 30.2528 16.0008 30.3763 16.0008ZM27.7498 29.3059C29.6057 29.3059 31.4616 29.3067 33.3175 29.3045C33.4454 29.3045 33.5756 29.2986 33.7013 29.2765C34.1579 29.1971 34.4785 28.8317 34.5131 28.3633C34.5454 27.9236 34.2734 27.492 33.8513 27.3604C33.68 27.3067 33.4903 27.2942 33.3087 27.2942C29.6064 27.2905 25.9042 27.2912 22.2013 27.2927C22.0733 27.2927 21.9432 27.2971 21.8182 27.3199C21.2108 27.4309 20.8542 28.0184 21.0344 28.6023C21.1704 29.0434 21.5586 29.3045 22.1013 29.3045C23.9829 29.3074 25.8667 29.3059 27.7498 29.3059ZM27.7594 32.6677C26.152 32.6677 24.5439 32.667 22.9366 32.6677C22.5873 32.6677 22.2373 32.6567 21.8895 32.678C21.3108 32.7126 20.891 33.2773 21.0072 33.8412C21.1167 34.3736 21.5086 34.6721 22.1094 34.6721C25.8667 34.6729 29.6241 34.6729 33.3814 34.6721C33.4454 34.6721 33.5101 34.6743 33.5741 34.6692C34.0381 34.6302 34.4182 34.2934 34.4947 33.8567C34.6116 33.1854 34.1609 32.6707 33.4373 32.6692C31.5439 32.6655 29.652 32.6677 27.7594 32.6677ZM24.3108 23.5493C25.0638 23.5493 25.8175 23.5515 26.5704 23.5471C26.7153 23.5464 26.8675 23.539 27.0042 23.4971C27.4616 23.3559 27.7572 22.8795 27.6859 22.4287C27.6013 21.8927 27.2101 21.5479 26.6572 21.5464C25.1322 21.5412 23.6072 21.5434 22.0822 21.5449C21.4373 21.5457 20.9726 21.9787 20.9822 22.5618C20.9917 23.139 21.4373 23.5442 22.0785 23.5479C22.8226 23.553 23.5667 23.5493 24.3108 23.5493Z" fill="white"/>
<path d="M36.3727 21.1111C35.3756 21.1111 34.33 21.1244 33.2859 21.1052C32.8374 21.0972 32.4117 20.7016 32.4028 20.2699C32.3801 19.2089 32.3955 18.1464 32.3955 17.1016C33.7242 18.4405 35.0543 19.7817 36.3727 21.1111Z" fill="white"/>
<defs>
<linearGradient id="paint0_linear_10_69067" x1="0" y1="0" x2="56" y2="56" gradientUnits="userSpaceOnUse">
<stop offset="0.00752217" stop-color="#FF0098"/>
<stop offset="1" stop-color="#5D00C1"/>
</linearGradient>
</defs>
</svg>
