<svg width="56" height="56" viewBox="0 0 56 56" fill="none" xmlns="http://www.w3.org/2000/svg">
<circle cx="28" cy="28" r="28" fill="url(#paint0_linear_10_69083)"/>
<path d="M28.0227 16C34.619 16.017 40.0176 21.4363 40 28.0219C39.9823 34.6183 34.5652 40.0146 27.9773 39.9984C21.3817 39.9823 15.9824 34.5629 16 27.9765C16.0177 21.381 21.4364 15.9831 28.0227 16ZM27.9942 20.6663C27.5635 20.6632 27.2919 20.8871 27.1057 21.2587C26.5796 22.3118 26.0488 23.3633 25.5072 24.4087C25.4511 24.518 25.3242 24.6349 25.2095 24.6611C24.9018 24.7326 24.5826 24.7557 24.268 24.8011C23.3249 24.9357 22.3818 25.0688 21.4394 25.208C21.1163 25.2557 20.8648 25.4157 20.7202 25.7203C20.524 26.1342 20.6063 26.5034 20.9986 26.8788C21.8502 27.6942 22.7025 28.5096 23.5641 29.3143C23.7256 29.465 23.7695 29.6043 23.7287 29.8227C23.511 30.9905 23.3103 32.162 23.1087 33.3321C23.0295 33.7929 23.2364 34.1944 23.6318 34.3736C23.9495 34.5175 24.2464 34.4544 24.5441 34.3006C25.5995 33.7552 26.6611 33.2228 27.7111 32.6667C27.9304 32.5505 28.0935 32.5628 28.3035 32.6736C29.3643 33.2313 30.432 33.7744 31.4982 34.3213C31.8543 34.5044 32.2097 34.5221 32.539 34.2706C32.8628 34.0229 32.9605 33.6898 32.8874 33.2882C32.6751 32.119 32.479 30.9474 32.2644 29.7789C32.2274 29.5789 32.2874 29.4581 32.4274 29.3266C33.2867 28.5189 34.1375 27.7019 34.9937 26.8911C35.2975 26.6034 35.4714 26.278 35.3352 25.8488C35.1998 25.4218 34.8744 25.2434 34.4606 25.1841C33.2736 25.0149 32.0882 24.8403 30.8989 24.6872C30.6735 24.658 30.5612 24.5664 30.4651 24.3734C29.9458 23.3279 29.4112 22.2895 28.8896 21.2456C28.7012 20.8725 28.4212 20.6602 27.9942 20.6663Z" fill="white"/>
<path d="M30.7605 31.8642C30.0612 31.5065 29.4166 31.2157 28.8128 30.8564C28.245 30.5187 27.7412 30.5287 27.1766 30.8634C26.5727 31.2211 25.9288 31.5118 25.2426 31.8619C25.3573 31.1988 25.4157 30.5857 25.5757 30.001C25.7942 29.2041 25.6265 28.6002 24.9588 28.0856C24.4749 27.7133 24.0626 27.2486 23.5657 26.7748C24.0141 26.7071 24.4088 26.6471 24.8042 26.5886C25.2096 26.5294 25.6134 26.4617 26.0204 26.4163C26.4388 26.3694 26.7104 26.1494 26.8919 25.7794C27.1981 25.1547 27.5173 24.5355 27.832 23.9147C27.8766 23.8262 27.9281 23.7409 28.0035 23.6055C28.175 23.9393 28.3281 24.2339 28.4789 24.5301C28.702 24.9678 28.9235 25.4063 29.1435 25.8455C29.3074 26.1725 29.5658 26.3594 29.9312 26.4086C30.6413 26.5056 31.3505 26.6094 32.0598 26.7117C32.1667 26.7271 32.2721 26.7494 32.4305 26.7786C31.8582 27.3233 31.3405 27.8479 30.7874 28.3318C30.3666 28.7002 30.2551 29.1164 30.3674 29.6503C30.5182 30.358 30.6228 31.0757 30.7605 31.8642Z" fill="white"/>
<defs>
<linearGradient id="paint0_linear_10_69083" x1="0" y1="0" x2="56" y2="56" gradientUnits="userSpaceOnUse">
<stop offset="0.00752217" stop-color="#FF0098"/>
<stop offset="1" stop-color="#5D00C1"/>
</linearGradient>
</defs>
</svg>
