<svg width="20" height="20" viewBox="0 0 20 20" fill="none" xmlns="http://www.w3.org/2000/svg">
<g clip-path="url(#clip0_146_1910)">
<path d="M18.375 13.5V14.9062C18.375 15.6819 17.7439 16.3125 16.9688 16.3125H4.875C3.63412 16.3125 2.625 15.3034 2.625 14.0625V4.5C2.625 3.25912 3.63412 2.25 4.875 2.25H15.2812C15.3921 2.25 15.5018 2.27182 15.6041 2.31423C15.7065 2.35663 15.7995 2.41878 15.8779 2.49713C15.9562 2.57548 16.0184 2.66849 16.0608 2.77086C16.1032 2.87323 16.125 2.98295 16.125 3.09375C16.125 3.20455 16.1032 3.31427 16.0608 3.41664C16.0184 3.51901 15.9562 3.61202 15.8779 3.69037C15.7995 3.76872 15.7065 3.83087 15.6041 3.87327C15.5018 3.91568 15.3921 3.9375 15.2812 3.9375H4.875C4.73017 3.94398 4.59342 4.00607 4.49322 4.11085C4.39302 4.21563 4.3371 4.35502 4.3371 4.5C4.3371 4.64498 4.39302 4.78437 4.49322 4.88915C4.59342 4.99393 4.73017 5.05602 4.875 5.0625H16.9688C17.7439 5.0625 18.375 5.69306 18.375 6.46875V7.875H15.5625C14.0117 7.875 12.75 9.13669 12.75 10.6875C12.75 12.2383 14.0117 13.5 15.5625 13.5H18.375Z" fill="#1C2449"/>
<path d="M18.375 9V12.375H15.5625C15.1149 12.375 14.6857 12.1972 14.3693 11.8807C14.0528 11.5643 13.875 11.1351 13.875 10.6875C13.875 10.2399 14.0528 9.81072 14.3693 9.49426C14.6857 9.17779 15.1149 9 15.5625 9H18.375Z" fill="#1C2449"/>
</g>
<defs>
<clipPath id="clip0_146_1910">
<rect width="19" height="19" fill="white" transform="translate(0.5 0.5)"/>
</clipPath>
</defs>
</svg>
